<svg xmlns="http://www.w3.org/2000/svg"  viewBox="0 0 100 100">
  <defs><filter id="glow" x="-30%" y="-30%" width="160%" height="160%">
      <feGaussianBlur in="SourceGraphic" stdDeviation="1.1" result="b"/>
      <feMerge><feMergeNode in="b"/><feMergeNode in="SourceGraphic"/></feMerge></filter></defs>
  <rect x="3" y="3" width="94" height="94" rx="20" ry="20" fill="#020402"/>
       <rect x="4.6" y="4.6" width="90.8" height="90.8" rx="18" ry="18" fill="none" stroke="#1f9c3f" stroke-width="1.3"/>
  <g filter="url(#glow)" transform="translate(50 50) scale(0.9712) translate(-50 -50)">
    <polygon points="16,60 25,30 39,52 50,22 61,52 75,30 84,60" fill="#33ff66"/>
    <rect x="16" y="59" width="68" height="25" rx="2" fill="#33ff66"/>
    <circle cx="25" cy="28" r="4.5" fill="#33ff66"/>
    <circle cx="50" cy="20" r="5" fill="#33ff66"/>
    <circle cx="75" cy="28" r="4.5" fill="#33ff66"/>
    <g fill="#020402">
      <circle cx="30" cy="71" r="4"/><circle cx="50" cy="71" r="4.6"/><circle cx="70" cy="71" r="4"/>
    </g>
    <rect x="16" y="80" width="68" height="4" fill="#020402"/>
    <rect x="16" y="80" width="68" height="1.6" fill="#33ff66"/></g>
</svg>