<svg xmlns="http://www.w3.org/2000/svg"  viewBox="0 0 100 100">
  <defs><filter id="glow" x="-30%" y="-30%" width="160%" height="160%">
      <feGaussianBlur in="SourceGraphic" stdDeviation="1.1" result="b"/>
      <feMerge><feMergeNode in="b"/><feMergeNode in="SourceGraphic"/></feMerge></filter></defs>
  <rect x="3" y="3" width="94" height="94" rx="20" ry="20" fill="#020402"/>
       <rect x="4.6" y="4.6" width="90.8" height="90.8" rx="18" ry="18" fill="none" stroke="#1f9c3f" stroke-width="1.3"/>
  <g filter="url(#glow)" transform="translate(50 50) scale(0.9250) translate(-50 -50)">
    <path d="M14,86 Q23,83 32,86 T50,86 T68,86 T86,86" stroke="#1f9c3f" stroke-width="1.6" fill="none" stroke-linecap="round"/>
    <path d="M16,68 L84,68 Q76,82 50,82 Q24,82 16,68 Z" fill="#33ff66"/>
    <rect x="49" y="22" width="2" height="46" fill="#33ff66"/>
    <polygon points="51,22 61,25 51,29" fill="#33ff66"/>
    <polygon points="51,30 75,35 75,62 51,65" fill="#33ff66"/>
    <g stroke="#020402" stroke-width="1.4">
      <line x1="51" y1="38" x2="75" y2="42"/><line x1="51" y1="46" x2="75" y2="49"/><line x1="51" y1="54" x2="75" y2="56"/>
    </g>
    <polygon points="49,33 33,48 49,53" fill="#33ff66"/>
    <line x1="47" y1="41" x2="36" y2="46" stroke="#020402" stroke-width="1.3"/></g>
</svg>